<svg width="100" height="100" viewBox="0 0 100 100" fill="none" xmlns="http://www.w3.org/2000/svg">
<rect width="100" height="100" rx="8" fill="#F1F5F9"/>
<path d="M62.9688 35.1875C64.3125 35.1875 65.5938 35.7188 66.5625 36.6875C67.5312 37.6562 68 38.9375 68 40.2812V51.7812C68 52.8438 67.6875 53.7812 67.125 54.625C66.5625 55.4375 65.7812 56.125 64.8438 56.6562L54.7812 62.9688C53.8438 63.5 52.8438 63.7812 51.7812 63.7812H48.2188C47.1562 63.7812 46.2188 63.5 45.375 62.9688C44.5625 62.4062 43.875 61.625 43.3438 60.6875L33.0312 45.4375C32.5 44.5 32.2188 43.5 32.2188 42.4375V39.875C32.2188 38.5312 32.6875 37.25 33.6562 36.2812C34.625 35.3125 35.9062 34.8125 37.3438 34.8125H62.9688V35.1875ZM51.7812 40.2812H42.4375V44.5H51.7812V40.2812Z" fill="#1E293B"/>
</svg>
