<svg width="200" height="40" viewBox="0 0 200 40" fill="none" xmlns="http://www.w3.org/2000/svg">
<g clip-path="url(#clip0_301_3)">
<path d="M192.83 2.14844H183.05V37.8484H192.83V2.14844Z" fill="#0D1D2C"/>
<path d="M174.57 2.14844H157.07L153.21 14.8884H165.73L164.55 19.3484H152.03L147.23 37.8484H157.37L162.17 19.3484H173.39L174.57 14.8884H163.35L166.07 2.14844H174.57Z" fill="#0D1D2C"/>
<path d="M141.62 14.8884L137.9 2.14844H120.04L116.18 14.8884H129.4L125.79 27.2484H115.02L111.3 37.8484H129.16L132.89 27.2484H142.79L141.62 14.8884ZM122.95 23.3684H132.19L130.34 14.8884H121.1L122.95 23.3684Z" fill="#0D1D2C"/>
<path d="M109.11 2.14844H97.77L90.87 37.8484H101.01L102.73 30.1284H110.15L111.02 37.8484H121.16L109.11 2.14844ZM106.66 26.2484H103.58L106.49 11.7784L106.66 26.2484Z" fill="#0D1D2C"/>
<path d="M84.3496 2.14844H70.3696C68.6496 2.14844 67.2296 3.56844 66.9296 5.28844L56.9096 37.8484H67.2296L70.9496 25.1084H80.5496L77.0096 37.8484H87.1496L94.0496 5.28844C94.5296 3.49844 93.1796 2.14844 91.3896 2.14844H84.3496V2.14844ZM79.3796 21.2284H71.7296L75.6596 7.62844H83.0396L79.3796 21.2284Z" fill="#0D1D2C"/>
<path d="M50.4196 2.14844H32.5596C30.8396 2.14844 29.4196 3.56844 29.1196 5.28844L19.0996 37.8484H29.4196L33.1396 25.1084H42.7396L39.1996 37.8484H49.3396L56.2396 5.28844C56.7196 3.49844 55.3696 2.14844 53.5796 2.14844H50.4196V2.14844ZM41.5696 21.2284H33.9196L37.8496 7.62844H45.2296L41.5696 21.2284Z" fill="#0D1D2C"/>
<path d="M12.92 2.14844H-4.94L-8.8 14.8884H3.72L2.54 19.3484H-10.02L-14.78 37.8484H-4.64L0.16 19.3484H11.38L12.56 14.8884H1.34L4.06 2.14844H12.92V2.14844Z" transform="translate(14.78, 0)" fill="#0D1D2C"/>
</g>
<defs>
<clipPath id="clip0_301_3">
<rect width="200" height="40" fill="white"/>
</clipPath>
</defs>
</svg>
